<?xml version="1.0" encoding="utf-8"?>
<!-- Generator: Adobe Illustrator 23.0.1, SVG Export Plug-In . SVG Version: 6.00 Build 0)  -->
<svg version="1.1" id="Ebene_1" xmlns="http://www.w3.org/2000/svg" xmlns:xlink="http://www.w3.org/1999/xlink" x="0px" y="0px"
	 viewBox="0 0 248.42 70.27" style="enable-background:new 0 0 248.42 70.27;" xml:space="preserve">
<style type="text/css">
	.st0{fill:#181716;}
	.st1{fill:#FFED00;}
</style>
<g>
	<path class="st0" d="M19.95,8.47c-0.56,3.38-1.74,4.83-4.5,5.27l-0.03,0.09c3.09,0.3,3.88,1.85,3.32,5.27
		c-0.73,4.74-3.32,6.35-9.3,6.35c-2.77,0-6.21-0.12-9.06-0.35c-0.32-0.03-0.41-0.12-0.38-0.41L3.48,2.85
		c0.03-0.29,0.15-0.38,0.5-0.41C6.92,2.2,9.8,2.08,12.57,2.08C18.63,2.08,20.69,3.79,19.95,8.47z M6.89,15.64L6.1,20.7h3.62
		c2.35,0,3.35-0.59,3.68-2.44c0.29-1.97-0.59-2.62-2.88-2.62H6.89z M8.27,6.82l-0.79,5.03h2.71c2.74,0,3.77-0.5,4.09-2.47
		c0.32-1.94-0.56-2.56-3.03-2.56H8.27z"/>
	<path class="st0" d="M38.22,8.61c0.29,0,0.38,0.15,0.32,0.47l-2.41,15.33c-0.06,0.38-0.18,0.44-0.5,0.5
		c-1.91,0.35-4.97,0.53-7.59,0.53c-5.83,0-7.03-1.27-6.09-7.18l1.44-9.18c0.06-0.32,0.26-0.47,0.56-0.47h4.24
		c0.29,0,0.41,0.15,0.35,0.47l-1.21,7.62c-0.65,4.09-0.44,4.33,2.21,4.33h1.97l1.88-11.95c0.06-0.32,0.24-0.47,0.53-0.47H38.22z"/>
	<path class="st0" d="M52.1,8.82c0.32,0.06,0.47,0.21,0.41,0.62l-0.5,3c-0.03,0.29-0.23,0.44-0.56,0.44h-2.91
		c-1.26,0-1.82,0.21-2.03,1.47l-1.65,10.47c-0.06,0.32-0.24,0.47-0.53,0.47h-4.27c-0.29,0-0.41-0.15-0.35-0.47l1.88-11.86
		c0.62-3.91,3.21-4.5,6.36-4.5C48.86,8.47,50.89,8.55,52.1,8.82z"/>
	<path class="st0" d="M60.3,2.26c0.29,0,0.41,0.18,0.38,0.47l-1.82,11.53l4.74-5.36c0.18-0.18,0.41-0.29,0.68-0.29h4.71
		c0.53,0,0.47,0.23,0.18,0.56l-5.44,6.03l4.09,9.3c0.15,0.38,0.18,0.79-0.62,0.79h-4.5c-0.29,0-0.5-0.12-0.59-0.32l-3.59-8.62
		l-1.32,8.47c-0.06,0.32-0.24,0.47-0.53,0.47h-4.24c-0.29,0-0.41-0.15-0.35-0.47l3.47-22.1c0.03-0.29,0.21-0.47,0.5-0.47H60.3z"/>
	<path class="st0" d="M77.65,2.26c0.29,0,0.41,0.18,0.38,0.47L77.1,8.61c0.91-0.09,2.03-0.15,2.82-0.15c5.83,0,7,1.27,6.09,7.15
		l-1.47,9.21c-0.06,0.32-0.24,0.47-0.53,0.47h-4.27c-0.29,0-0.38-0.15-0.32-0.47l1.21-7.62c0.62-4.09,0.44-4.33-2.21-4.33h-1.97
		l-1.91,11.95c-0.03,0.32-0.21,0.47-0.5,0.47h-4.3c-0.29,0-0.41-0.15-0.35-0.47l3.5-22.1c0.03-0.29,0.21-0.47,0.5-0.47H77.65z"/>
	<path class="st0" d="M103.83,13.76l-1.59,10.12c-0.12,0.59-0.35,0.82-0.85,0.94c-2.68,0.53-5.3,0.62-6.88,0.62
		c-4.68,0-7.21-0.32-6.5-5.27c0.74-4.18,3.03-4.94,7.24-4.94l3.24-0.03l0.09-0.59c0.18-1.24-0.5-1.74-1.97-1.74h-5.77
		c-0.29,0-0.38-0.18-0.32-0.53l0.47-2.91c0.06-0.35,0.18-0.41,0.47-0.47c1.91-0.38,3.74-0.5,5.85-0.5
		C103.74,8.47,104.33,10.61,103.83,13.76z M95.24,18.29c-1.47,0-1.94,0.5-2.09,1.53c-0.18,1.18,0.24,1.5,1.82,1.5
		c0.44,0,1.8-0.06,2.56-0.24l0.44-2.79H95.24z"/>
	<path class="st0" d="M113.98,2.26c0.29,0,0.41,0.18,0.38,0.47l-3.5,22.1c-0.06,0.32-0.24,0.47-0.53,0.47h-4.24
		c-0.29,0-0.41-0.15-0.38-0.47l3.5-22.1c0.03-0.29,0.21-0.47,0.5-0.47H113.98z"/>
	<path class="st0" d="M123.45,4.02c0.32-0.09,0.44,0.15,0.38,0.47l-0.68,4.24h2.53c0.35,0,0.5,0.15,0.47,0.44l-0.47,2.85
		c-0.06,0.32-0.26,0.47-0.59,0.47h-2.53l-1.12,7.06c-0.21,1.27,0.26,1.47,1.44,1.47h1.09c0.35,0,0.5,0.15,0.47,0.44l-0.47,3.06
		c-0.09,0.38-0.29,0.53-0.62,0.59c-1.29,0.24-2.18,0.32-2.97,0.32c-2.77,0-5-0.12-4.35-4.03l1.38-8.91h-1.74
		c-0.32,0-0.47-0.15-0.41-0.47l0.44-2.85c0.03-0.29,0.24-0.44,0.59-0.44h1.74l0.47-3.12c0.06-0.32,0.21-0.38,0.53-0.47L123.45,4.02z
		"/>
	<path class="st0" d="M142.54,16.88l-0.15,0.91c-0.09,0.62-0.32,0.79-0.97,0.79h-9.18c-0.32,2.18,0.35,2.44,2.65,2.44h5.38
		c0.3,0,0.41,0.15,0.38,0.44l-0.47,3c-0.06,0.35-0.24,0.44-0.5,0.5c-1.68,0.35-4.03,0.47-6.06,0.47c-6.15,0-7.47-1.68-6.38-8.47
		c1.06-6.83,2.94-8.5,9.09-8.5C142.39,8.47,143.6,10.14,142.54,16.88z M132.68,15.47h4.94c0.3-2-0.3-2.59-2-2.59
		C133.89,12.88,133.01,13.47,132.68,15.47z"/>
	<path class="st0" d="M156.57,8.82c0.32,0.06,0.47,0.21,0.41,0.62l-0.5,3c-0.03,0.29-0.23,0.44-0.56,0.44h-2.91
		c-1.26,0-1.82,0.21-2.03,1.47l-1.65,10.47c-0.06,0.32-0.23,0.47-0.53,0.47h-4.27c-0.29,0-0.41-0.15-0.35-0.47l1.88-11.86
		c0.62-3.91,3.21-4.5,6.35-4.5C153.33,8.47,155.36,8.55,156.57,8.82z"/>
</g>
<path class="st0" d="M172.59,35.69c5.43-3.91,20.59-14,20.59-14c-7.1-13.76-27.59-18.68-27.59-18.68
	c13.71,2.2,35.58,8.15,58.61,14.75c13.72,3.93,22.36,7.68,22.36,7.68c-67.04,0-112.13,44.84-112.13,44.84S155.35,48.14,172.59,35.69
	"/>
<path class="st1" d="M248.42,22.42c0,0-9.3-4.7-26.14-9.87C196.96,4.77,161.78,0,161.78,0s27.62,5.6,33.23,18.69
	c0,0-15.12,10.08-20.57,14c-17.25,12.42-38.17,34.55-38.17,34.55S181.36,22.42,248.42,22.42"/>
<g>
	<path class="st0" d="M122.93,28.63c0.13,0.02,0.19,0.09,0.16,0.23l-0.11,0.69c-0.02,0.12-0.08,0.17-0.19,0.17h-2.26
		c-1.7,0-2.1,0.69-2.47,3.01c-0.36,2.32-0.17,3,1.53,3h1.52l0.45-2.77c0.01-0.11,0.08-0.18,0.19-0.18h0.98
		c0.11,0,0.15,0.07,0.14,0.18l-0.5,3.17c-0.03,0.14-0.04,0.18-0.09,0.24c-0.31,0.48-1.74,0.58-2.88,0.58
		c-2.71,0-3.25-0.96-2.74-4.22c0.51-3.27,1.35-4.23,4.08-4.23C121.42,28.5,122.4,28.54,122.93,28.63z"/>
	<path class="st0" d="M127.94,30.93c0.1,0.03,0.15,0.08,0.13,0.2l-0.11,0.66c-0.01,0.12-0.09,0.17-0.2,0.16h-0.99
		c-0.65,0-0.87,0.11-0.95,0.59l-0.67,4.19c-0.01,0.11-0.08,0.16-0.18,0.16h-0.99c-0.11,0-0.15-0.05-0.14-0.16l0.72-4.52
		c0.21-1.3,1.25-1.4,2.07-1.4C126.91,30.81,127.65,30.85,127.94,30.93z"/>
	<path class="st0" d="M133.72,33.89c-0.38,2.45-0.96,3.06-3.14,3.06s-2.55-0.61-2.17-3.06c0.39-2.46,0.97-3.07,3.15-3.07
		C133.74,30.81,134.11,31.42,133.72,33.89z M129.74,33.89c-0.25,1.54-0.14,1.92,1.03,1.92c1.17,0,1.38-0.38,1.63-1.92
		c0.25-1.55,0.14-1.93-1.02-1.93S129.99,32.34,129.74,33.89z"/>
	<path class="st0" d="M140.77,30.87c0.11,0,0.15,0.04,0.13,0.16l-0.88,5.56c-0.02,0.14-0.08,0.15-0.18,0.18
		c-0.83,0.16-1.81,0.18-2.46,0.18c-2.02,0-2.53-0.32-2.17-2.59l0.52-3.33c0.02-0.12,0.1-0.16,0.21-0.16h0.98
		c0.11,0,0.15,0.05,0.14,0.16l-0.5,3.08c-0.25,1.61-0.01,1.69,1.01,1.69h1.25l0.75-4.78c0.02-0.12,0.09-0.16,0.2-0.16H140.77z"/>
	<path class="st0" d="M147.46,33.83c-0.39,2.47-0.98,3.12-3,3.12c-0.5,0-0.92-0.01-1.37-0.07l-0.33,2.02
		c-0.01,0.12-0.08,0.18-0.19,0.18h-0.99c-0.11,0-0.15-0.05-0.14-0.18l1.22-7.68c0.02-0.13,0.1-0.2,0.23-0.22
		c0.96-0.15,1.58-0.2,2.36-0.2C147.46,30.81,147.84,31.45,147.46,33.83z M143.86,31.96l-0.6,3.77c0.37,0.04,0.82,0.07,1.18,0.07
		c1.22,0,1.44-0.36,1.69-1.92c0.24-1.49,0.2-1.92-1.01-1.92H143.86z"/>
</g>
</svg>
