<?xml version="1.0" standalone="no"?>
<!DOCTYPE svg PUBLIC "-//W3C//DTD SVG 20010904//EN"
 "http://www.w3.org/TR/2001/REC-SVG-20010904/DTD/svg10.dtd">
<svg version="1.0" xmlns="http://www.w3.org/2000/svg"
 width="360.000000pt" height="360.000000pt" viewBox="0 0 360.000000 360.000000"
 preserveAspectRatio="xMidYMid meet">

<g transform="translate(0.000000,360.000000) scale(0.100000,-0.100000)"
fill="#000000" stroke="none">
<path d="M132 3502 c3 -43 4 -44 56 -61 62 -21 95 -49 122 -106 28 -59 39
-158 50 -490 10 -310 25 -444 67 -595 58 -210 166 -360 351 -483 169 -112 383
-174 688 -199 l144 -12 0 -502 c0 -516 -6 -625 -40 -699 -48 -107 -151 -157
-350 -172 l-90 -6 0 -43 0 -44 700 0 700 0 0 45 0 45 -54 0 c-66 0 -187 23
-239 45 -44 18 -123 87 -142 124 -30 60 -37 170 -42 686 l-5 521 152 12 c348
29 576 106 770 259 190 150 276 333 320 683 6 47 15 220 20 385 5 165 14 325
21 355 23 113 80 180 164 198 36 7 40 11 43 41 6 56 3 58 -98 49 -239 -19
-398 -117 -489 -302 -75 -151 -104 -290 -121 -591 -28 -474 -75 -614 -253
-761 -102 -83 -243 -130 -430 -141 l-99 -6 5 684 c6 747 8 781 62 859 52 75
145 115 308 132 l107 12 0 37 c0 24 -5 39 -15 43 -9 3 -322 5 -698 3 l-682 -2
-3 -41 -3 -40 108 -12 c59 -6 131 -18 160 -27 60 -18 128 -66 160 -113 45 -67
46 -89 50 -831 l4 -704 -95 6 c-231 15 -398 88 -513 225 -111 131 -144 277
-172 752 -33 550 -210 786 -613 819 l-89 7 3 -44z"/>
</g>
</svg>
