<?xml version="1.0" standalone="no"?>
<!DOCTYPE svg PUBLIC "-//W3C//DTD SVG 20010904//EN"
 "http://www.w3.org/TR/2001/REC-SVG-20010904/DTD/svg10.dtd">
<svg version="1.0" xmlns="http://www.w3.org/2000/svg"
 width="1600.000000pt" height="1600.000000pt" viewBox="0 0 1600.000000 1600.000000"
 preserveAspectRatio="xMidYMid meet">

<g transform="translate(0.000000,1600.000000) scale(0.100000,-0.100000)"
fill="#000000" stroke="none">
<path d="M2000 13390 l0 -270 53 0 c77 0 221 -33 311 -70 298 -124 517 -409
612 -795 52 -213 54 -263 54 -1425 0 -1017 6 -1316 30 -1560 95 -947 389
-1659 890 -2160 359 -360 813 -596 1355 -705 280 -57 301 -58 1023 -62 l673
-4 -4 -1262 c-3 -1247 -3 -1263 -24 -1355 -39 -169 -106 -282 -213 -363 -168
-126 -476 -189 -927 -189 l-163 0 0 -250 0 -250 2330 0 2330 0 0 249 0 248
-242 6 c-134 3 -283 11 -333 16 -424 50 -616 164 -700 416 -54 159 -55 188
-55 1513 l0 1222 579 0 c320 0 625 5 682 10 903 89 1628 499 2101 1185 296
430 498 1003 583 1653 45 346 47 426 55 1727 7 1207 8 1253 27 1345 56 256
138 434 267 577 144 159 372 263 614 280 l92 6 0 270 0 269 -287 -5 c-239 -4
-305 -9 -387 -26 -551 -115 -962 -468 -1251 -1074 -178 -374 -311 -879 -369
-1407 -31 -275 -37 -431 -46 -1100 -9 -682 -17 -870 -46 -1155 -51 -510 -157
-871 -331 -1134 -71 -107 -218 -260 -322 -334 -343 -248 -847 -375 -1646 -417
-104 -5 -218 -10 -252 -10 l-63 0 0 2408 c0 1490 4 2451 10 2522 36 423 132
700 308 891 199 215 467 318 900 345 l112 7 0 243 0 244 -2330 0 -2330 0 0
-243 0 -244 158 -11 c191 -14 306 -33 432 -72 409 -126 627 -405 704 -900 34
-221 36 -338 36 -2772 l0 -2421 -202 7 c-1708 59 -2242 449 -2382 1736 -35
325 -45 556 -56 1395 -10 736 -23 906 -101 1335 -200 1104 -659 1827 -1324
2084 -211 81 -372 106 -697 106 l-238 0 0 -270z"/>
</g>
</svg>
